<svg xmlns="http://www.w3.org/2000/svg" width="40" height="40" viewBox="0 0 40 40" fill="none">
  <path d="M20 14C16 14 12 16 12 20C12 24 16 26 20 26C24 26 28 24 28 20C28 16 24 14 20 14Z" stroke="#C4714A" stroke-width="1.5" stroke-linecap="round"/>
  <path d="M14 16C10 12 8 16 10 20C12 24 14 24 14 24" stroke="#C4714A" stroke-width="1.5" stroke-linecap="round"/>
  <path d="M26 16C30 12 32 16 30 20C28 24 26 24 26 24" stroke="#C4714A" stroke-width="1.5" stroke-linecap="round"/>
  <path d="M16 10C18 8 22 8 24 10" stroke="#C4714A" stroke-width="1.5" stroke-linecap="round"/>
  <path d="M16 30C18 32 22 32 24 30" stroke="#C4714A" stroke-width="1.5" stroke-linecap="round"/>
</svg>
